{
    "asset" : {
        "generator" : "Khronos glTF Blender I/O v1.6.16",
        "version" : "2.0"
    },
    "scene" : 0,
    "scenes" : [
        {
            "name" : "Scene",
            "nodes" : [
                15
            ]
        }
    ],
    "nodes" : [
        {
            "name" : "Ear.R",
            "rotation" : [
                -0.35842007398605347,
                -0.15743467211723328,
                0.18568472564220428,
                0.9012605547904968
            ],
            "scale" : [
                1,
                0.9999999403953552,
                1
            ],
            "translation" : [
                -9.562489111658579e-08,
                1.1622589826583862,
                9.468721628991261e-08
            ]
        },
        {
            "name" : "Ear.L",
            "rotation" : [
                -0.35842010378837585,
                0.15743495523929596,
                -0.18568465113639832,
                0.901260495185852
            ],
            "scale" : [
                1,
                1.000000238418579,
                1
            ],
            "translation" : [
                1.9834487829939462e-08,
                1.1622591018676758,
                -6.298955668171402e-08
            ]
        },
        {
            "children" : [
                0,
                1
            ],
            "name" : "Head",
            "rotation" : [
                -0.3726366460323334,
                -2.244243120230749e-07,
                -4.113422935603239e-09,
                0.9279773235321045
            ],
            "scale" : [
                1,
                1.0000001192092896,
                1.0000001192092896
            ],
            "translation" : [
                -3.807478150038429e-14,
                0.5385164022445679,
                5.786408863173165e-08
            ]
        },
        {
            "children" : [
                2
            ],
            "name" : "Neck",
            "rotation" : [
                1.4277220294900417e-08,
                -0.981956422328949,
                -0.1891075223684311,
                7.413564873104406e-08
            ],
            "scale" : [
                1,
                1.000000238418579,
                1
            ],
            "translation" : [
                3.078830296789005e-15,
                1.8062101602554321,
                -2.8285052522392107e-08
            ]
        },
        {
            "name" : "Hand.L",
            "rotation" : [
                -0.5987334847450256,
                -0.5729181170463562,
                0.32272055745124817,
                0.4573124349117279
            ],
            "scale" : [
                1.000000238418579,
                1.0000001192092896,
                1.0000001192092896
            ],
            "translation" : [
                3.513978441560539e-08,
                0.7597070336341858,
                -1.2945161387278858e-08
            ]
        },
        {
            "children" : [
                4
            ],
            "name" : "Arm.L",
            "rotation" : [
                -0.10179078578948975,
                -0.10649461299180984,
                0.6626424789428711,
                0.7343041300773621
            ],
            "scale" : [
                1,
                1,
                0.9999998807907104
            ],
            "translation" : [
                1.1816958966903712e-08,
                1.8062102794647217,
                1.948363248516216e-09
            ]
        },
        {
            "name" : "Hand.R",
            "rotation" : [
                -0.5987335443496704,
                0.5729179978370667,
                -0.3227204382419586,
                0.4573124349117279
            ],
            "scale" : [
                1,
                1.0000001192092896,
                1
            ],
            "translation" : [
                -4.1314926590985124e-08,
                0.7597070336341858,
                -4.611666781784152e-08
            ]
        },
        {
            "children" : [
                6
            ],
            "name" : "Arm.R",
            "rotation" : [
                -0.10179080814123154,
                0.10649459064006805,
                -0.6626424789428711,
                0.7343041300773621
            ],
            "scale" : [
                0.9999999403953552,
                1.0000001192092896,
                0.9999998807907104
            ],
            "translation" : [
                8.269704920849108e-09,
                1.8062102794647217,
                -3.66363650528001e-09
            ]
        },
        {
            "children" : [
                3,
                5,
                7
            ],
            "name" : "Spine",
            "rotation" : [
                -3.100445766790472e-08,
                -0.7049073576927185,
                0.7092993855476379,
                3.0812476126129695e-08
            ],
            "scale" : [
                1,
                1.0000001192092896,
                0.9999999403953552
            ],
            "translation" : [
                1.819797347616661e-23,
                1.0000191926956177,
                -8.335337042808533e-08
            ]
        },
        {
            "name" : "Foot.L",
            "rotation" : [
                -0.2858821749687195,
                -0.45706048607826233,
                0.6833767890930176,
                0.49230411648750305
            ],
            "scale" : [
                1.0000001192092896,
                1.0000001192092896,
                1.0000001192092896
            ],
            "translation" : [
                1.6404888469878642e-07,
                1.1853389739990234,
                -2.544819821537203e-08
            ]
        },
        {
            "children" : [
                9
            ],
            "name" : "Leg.L",
            "rotation" : [
                0.34620678424835205,
                0.6141350865364075,
                -0.4941917955875397,
                0.508678138256073
            ],
            "scale" : [
                1.0000001192092896,
                1,
                1.0000001192092896
            ],
            "translation" : [
                -1.382834469154659e-08,
                1.0000191926956177,
                -7.955677006066253e-08
            ]
        },
        {
            "name" : "Foot.R",
            "rotation" : [
                -0.2858821749687195,
                0.45706048607826233,
                -0.6833767890930176,
                0.49230411648750305
            ],
            "scale" : [
                1.0000001192092896,
                1.0000001192092896,
                1.0000001192092896
            ],
            "translation" : [
                -1.6404888469878642e-07,
                1.1853389739990234,
                -2.544819821537203e-08
            ]
        },
        {
            "children" : [
                11
            ],
            "name" : "Leg.R",
            "rotation" : [
                0.34620678424835205,
                -0.6141350865364075,
                0.4941917955875397,
                0.508678138256073
            ],
            "scale" : [
                1.0000001192092896,
                1,
                1.0000001192092896
            ],
            "translation" : [
                1.382834469154659e-08,
                1.0000191926956177,
                -7.955677006066253e-08
            ]
        },
        {
            "children" : [
                8,
                10,
                12
            ],
            "name" : "Hip",
            "rotation" : [
                -0.999995231628418,
                -5.2861175568548246e-17,
                -5.2861182185993147e-17,
                0.0031056138686835766
            ],
            "scale" : [
                1,
                1.0000001192092896,
                1.0000001192092896
            ],
            "translation" : [
                -5.302609222163417e-17,
                0.7611916065216064,
                -1.1225614547729492
            ]
        },
        {
            "mesh" : 0,
            "name" : "Cube.002",
            "skin" : 0
        },
        {
            "children" : [
                14,
                13
            ],
            "name" : "Armature"
        }
    ],
    "meshes" : [
        {
            "name" : "Cube.002",
            "primitives" : [
                {
                    "attributes" : {
                        "POSITION" : 0,
                        "NORMAL" : 1,
                        "TEXCOORD_0" : 2,
                        "JOINTS_0" : 3,
                        "WEIGHTS_0" : 4
                    },
                    "indices" : 5
                }
            ]
        }
    ],
    "skins" : [
        {
            "inverseBindMatrices" : 6,
            "joints" : [
                13,
                8,
                3,
                2,
                0,
                1,
                5,
                4,
                7,
                6,
                10,
                9,
                12,
                11
            ],
            "name" : "Armature"
        }
    ],
    "accessors" : [
        {
            "bufferView" : 0,
            "componentType" : 5126,
            "count" : 499,
            "max" : [
                1.1216782331466675,
                2.9954395294189453,
                2.878335952758789
            ],
            "min" : [
                -1.121679425239563,
                -1.6203290224075317,
                -2.1260790824890137
            ],
            "type" : "VEC3"
        },
        {
            "bufferView" : 1,
            "componentType" : 5126,
            "count" : 499,
            "type" : "VEC3"
        },
        {
            "bufferView" : 2,
            "componentType" : 5126,
            "count" : 499,
            "type" : "VEC2"
        },
        {
            "bufferView" : 3,
            "componentType" : 5121,
            "count" : 499,
            "type" : "VEC4"
        },
        {
            "bufferView" : 4,
            "componentType" : 5126,
            "count" : 499,
            "type" : "VEC4"
        },
        {
            "bufferView" : 5,
            "componentType" : 5123,
            "count" : 2286,
            "type" : "SCALAR"
        },
        {
            "bufferView" : 6,
            "componentType" : 5126,
            "count" : 14,
            "type" : "MAT4"
        }
    ],
    "bufferViews" : [
        {
            "buffer" : 0,
            "byteLength" : 5988,
            "byteOffset" : 0
        },
        {
            "buffer" : 0,
            "byteLength" : 5988,
            "byteOffset" : 5988
        },
        {
            "buffer" : 0,
            "byteLength" : 3992,
            "byteOffset" : 11976
        },
        {
            "buffer" : 0,
            "byteLength" : 1996,
            "byteOffset" : 15968
        },
        {
            "buffer" : 0,
            "byteLength" : 7984,
            "byteOffset" : 17964
        },
        {
            "buffer" : 0,
            "byteLength" : 4572,
            "byteOffset" : 25948
        },
        {
            "buffer" : 0,
            "byteLength" : 896,
            "byteOffset" : 30520
        }
    ],
    "buffers" : [
        {
            "byteLength" : 31416,
            "uri" : "rabbit_final.bin"
        }
    ]
}
